# xmcd CD database file
# Copyright (C) 1993-1998 Ti Kan
# 
# Track frame offsets:
#     150
#     14575
#     28895
#     38792
#     54810
#     65122
#     85667
#     98747
#     102985
#     114457
#     130667
#     138270
#     149122
#     159665
#     175805
#     187790
# 
# Disc length: 2698 seconds
# 
# Revision: 1
# Processed by: cddbd v1.4b41PL1 Copyright (c) Steve Scherf et al.
# Submitted via: DiscPlay 4.0.4
# 
DISCID=d80a8810
DTITLE=Nitty Gritty Dirt Band - Uncle Charlie and His Dog Teddy
DYEAR=1900
DGENRE=
TTITLE0=Some Of Shelly's Blues
TTITLE1=Prodigal's Return
TTITLE2=The Cure
TTITLE3=4a.Travelin' Mood - 4b. Chicken Reel
TTITLE4=Yukon Railroad
TTITLE5=Livin' without you - 6a. Clinch Mountain Backstep
TTITLE6=Rave on
TTITLE7=Billy in the low ground
TTITLE8=Jesse James - 9a. Uncle Charlie Interview
TTITLE9=Mr. Bojangles
TTITLE10=Opus 36, Clementi
TTITLE11=Santa Rosa
TTITLE12=Propinquity
TTITLE13=Uncle Charlie - 14a. Randy Lynn Rag
TTITLE14=House at Pooh Corner
TTITLE15=Swanee River - 16a. Uncle Charlie Interview - 16b. The End Spanih F
TTITLE15=andango
EXTD=
EXTT0=
EXTT1=
EXTT2=
EXTT3=
EXTT4=
EXTT5=
EXTT6=
EXTT7=
EXTT8=
EXTT9=
EXTT10=
EXTT11=
EXTT12=
EXTT13=
EXTT14=
EXTT15=
PLAYORDER=
